<?xml version="1.0" standalone="no"?>
<!DOCTYPE svg PUBLIC "-//W3C//DTD SVG 20010904//EN"
 "http://www.w3.org/TR/2001/REC-SVG-20010904/DTD/svg10.dtd">
<svg version="1.0" xmlns="http://www.w3.org/2000/svg"
 width="376.000000pt" height="83.000000pt" viewBox="0 0 376.000000 83.000000"
 preserveAspectRatio="xMidYMid meet">
<metadata>
Created by potrace 1.15, written by Peter Selinger 2001-2017
</metadata>
<g transform="translate(0.000000,83.000000) scale(0.100000,-0.100000)"
fill="#000000" stroke="none">
<path d="M650 721 c-74 -23 -136 -78 -169 -151 -30 -65 -28 -169 3 -236 78
-167 305 -206 436 -74 139 138 91 382 -88 450 -53 20 -135 25 -182 11z m171
-77 c79 -40 122 -147 99 -244 -30 -125 -175 -192 -285 -132 -89 48 -130 180
-86 277 21 47 80 102 119 111 15 3 32 7 37 9 17 6 89 -7 116 -21z"/>
<path d="M3414 711 c-59 -27 -84 -67 -84 -134 0 -75 27 -105 128 -147 110 -45
122 -55 122 -93 0 -18 -7 -42 -15 -54 -32 -46 -122 -48 -176 -4 -23 18 -24 18
-51 -2 -27 -20 -27 -21 -10 -40 32 -36 75 -51 148 -51 91 -1 143 29 169 98 38
98 -1 160 -126 201 -82 28 -119 58 -119 99 0 75 117 108 180 51 13 -11 19 -10
43 11 33 28 29 40 -27 65 -52 24 -130 24 -182 0z"/>
<path d="M100 455 l0 -265 155 0 155 0 0 35 0 35 -120 0 -120 0 0 230 0 230
-35 0 -35 0 0 -265z"/>
<path d="M1040 713 c0 -5 45 -123 99 -263 l98 -255 33 0 33 0 89 225 c48 124
95 242 103 263 l15 37 -39 0 -38 0 -79 -215 c-43 -117 -82 -211 -85 -207 -3 4
-39 100 -80 215 l-74 207 -37 0 c-21 0 -38 -3 -38 -7z"/>
<path d="M1580 455 l0 -265 173 2 172 3 3 33 3 32 -146 0 -146 0 3 83 3 82
123 3 122 3 0 29 0 29 -122 3 -123 3 -3 78 -3 77 136 0 135 0 0 35 0 35 -165
0 -165 0 0 -265z"/>
<path d="M2030 456 l0 -266 35 0 35 0 0 120 0 120 93 0 c75 0 98 4 125 20 60
36 81 134 42 197 -35 59 -60 68 -202 72 l-128 3 0 -266z m225 189 c40 -16 59
-54 50 -97 -10 -45 -39 -58 -127 -58 l-78 0 0 85 0 85 60 0 c33 0 76 -7 95
-15z"/>
<path d="M2470 455 l0 -265 175 0 175 0 0 35 0 35 -140 0 -140 0 0 85 0 85
125 0 125 0 0 30 0 30 -125 0 -125 0 0 80 0 80 135 0 135 0 0 35 0 35 -170 0
-170 0 0 -265z"/>
<path d="M2870 685 l0 -35 85 0 85 0 0 -231 0 -230 33 3 32 3 3 228 2 227 80
0 80 0 0 35 0 35 -200 0 -200 0 0 -35z"/>
</g>
</svg>
